<svg width="100" height="100" viewBox="0 0 100 100" fill="none" xmlns="http://www.w3.org/2000/svg">
<path d="M33.3334 100C42.5334 100 50.0001 92.5336 50.0001 83.3336V66.667H33.3334C24.1334 66.667 16.6667 74.1336 16.6667 83.3336C16.6667 92.5336 24.1334 100 33.3334 100Z" fill="#0ACF83"/>
<path d="M16.6667 50.0006C16.6667 40.8006 24.1334 33.334 33.3334 33.334H50.0001V66.6673H33.3334C24.1334 66.6673 16.6667 59.2006 16.6667 50.0006Z" fill="#A259FF"/>
<path d="M16.6667 16.6671C16.6667 7.46715 24.1334 0.000488281 33.3334 0.000488281H50.0001V33.3338H33.3334C24.1334 33.3338 16.6667 25.8671 16.6667 16.6671Z" fill="#F24E1E"/>
<path d="M50 0.000488281H66.6667C75.8667 0.000488281 83.3334 7.46715 83.3334 16.6671C83.3334 25.8671 75.8667 33.3338 66.6667 33.3338H50V0.000488281Z" fill="#FF7262"/>
<path d="M83.3334 50.0006C83.3334 59.2006 75.8667 66.6673 66.6667 66.6673C57.4667 66.6673 50 59.2006 50 50.0006C50 40.8006 57.4667 33.334 66.6667 33.334C75.8667 33.334 83.3334 40.8006 83.3334 50.0006Z" fill="#1ABCFE"/>
</svg>
